HIERARCHY
ROOT hip
{
  OFFSET 71.7236 85.3178 -43.2529
  CHANNELS 6 Xposition Yposition Zposition Zrotation Xrotation Yrotation
  JOINT abdomen
  {
    OFFSET 0 20.6881 -0.73152
    CHANNELS 3 Zrotation Xrotation Yrotation
    JOINT chest
    {
      OFFSET 0 11.7043 -0.48768
      CHANNELS 3 Zrotation Xrotation Yrotation
      JOINT neck
      {
        OFFSET 0 22.1894 -2.19456
        CHANNELS 3 Zrotation Xrotation Yrotation
        JOINT head
        {
          OFFSET -0.24384 7.07133 1.2192
          CHANNELS 3 Zrotation Xrotation Yrotation
          JOINT leftEye
          {
            OFFSET 4.14528 8.04674 8.04672
            CHANNELS 3 Zrotation Xrotation Yrotation
            End Site
            {
              OFFSET 1 0 0
            }
          }
          JOINT rightEye
          {
            OFFSET -3.6576 8.04674 8.04672
            CHANNELS 3 Zrotation Xrotation Yrotation
            End Site
            {
              OFFSET 1 0 0
            }
          }
        }
      }
      JOINT rCollar
      {
        OFFSET -2.68224 19.2634 -4.8768
        CHANNELS 3 Zrotation Xrotation Yrotation
        JOINT rShldr
        {
          OFFSET -8.77824 -1.95073 1.46304
          CHANNELS 3 Zrotation Xrotation Yrotation
          JOINT rForeArm
          {
            OFFSET -28.1742 -1.7115 0.48768
            CHANNELS 3 Zrotation Xrotation Yrotation
            JOINT rHand
            {
              OFFSET -22.5879 0.773209 7.07136
              CHANNELS 3 Zrotation Xrotation Yrotation
              JOINT rThumb1
              {
                OFFSET -1.2192 -0.487915 3.41376
                CHANNELS 3 Zrotation Xrotation Yrotation
                JOINT rThumb2
                {
                  OFFSET -3.37035 -0.52449 3.41376
                  CHANNELS 3 Zrotation Xrotation Yrotation
                  End Site
                  {
                    OFFSET -1.78271 -1.18214 1.43049
                  }
                }
              }
              JOINT rIndex1
              {
                OFFSET -7.75947 0.938293 5.60832
                CHANNELS 3 Zrotation Xrotation Yrotation
                JOINT rIndex2
                {
                  OFFSET -2.54057 -0.884171 1.56538
                  CHANNELS 3 Zrotation Xrotation Yrotation
                  End Site
                  {
                    OFFSET -1.62519 -0.234802 1.16502
                  }
                }
              }
              JOINT rMid1
              {
                OFFSET -8.24714 1.18213 3.41376
                CHANNELS 3 Zrotation Xrotation Yrotation
                JOINT rMid2
                {
                  OFFSET -3.10165 -0.590103 1.0647
                  CHANNELS 3 Zrotation Xrotation Yrotation
                  End Site
                  {
                    OFFSET -2.48547 -0.328903 0.83742
                  }
                }
              }
              JOINT rRing1
              {
                OFFSET -8.82822 0.546677 1.51678
                CHANNELS 3 Zrotation Xrotation Yrotation
                JOINT rRing2
                {
                  OFFSET -2.60934 -0.819778 -0.0198488
                  CHANNELS 3 Zrotation Xrotation Yrotation
                  End Site
                  {
                    OFFSET -2.33842 -0.294052 0.168128
                  }
                }
              }
              JOINT rPinky1
              {
                OFFSET -8.27202 -0.0477905 -0.4584
                CHANNELS 3 Zrotation Xrotation Yrotation
                JOINT rPinky2
                {
                  OFFSET -1.82734 -0.647385 -0.700984
                  CHANNELS 3 Zrotation Xrotation Yrotation
                  End Site
                  {
                    OFFSET -1.69225 -0.51767 -0.607171
                  }
                }
              }
            }
          }
        }
      }
      JOINT lCollar
      {
        OFFSET 2.68224 19.2634 -4.8768
        CHANNELS 3 Zrotation Xrotation Yrotation
        JOINT lShldr
        {
          OFFSET 8.77824 -1.95073 1.46304
          CHANNELS 3 Zrotation Xrotation Yrotation
          JOINT lForeArm
          {
            OFFSET 28.1742 -1.7115 0.48768
            CHANNELS 3 Zrotation Xrotation Yrotation
            JOINT lHand
            {
              OFFSET 22.5879 0.773209 7.07136
              CHANNELS 3 Zrotation Xrotation Yrotation
              JOINT lThumb1
              {
                OFFSET 1.2192 -0.487915 3.41376
                CHANNELS 3 Zrotation Xrotation Yrotation
                JOINT lThumb2
                {
                  OFFSET 3.37035 -0.52449 3.41376
                  CHANNELS 3 Zrotation Xrotation Yrotation
                  End Site
                  {
                    OFFSET 1.78271 -1.18214 1.43049
                  }
                }
              }
              JOINT lIndex1
              {
                OFFSET 7.75947 0.938293 5.60832
                CHANNELS 3 Zrotation Xrotation Yrotation
                JOINT lIndex2
                {
                  OFFSET 2.54057 -0.884171 1.56538
                  CHANNELS 3 Zrotation Xrotation Yrotation
                  End Site
                  {
                    OFFSET 1.62519 -0.234802 1.16502
                  }
                }
              }
              JOINT lMid1
              {
                OFFSET 8.24714 1.18213 3.41376
                CHANNELS 3 Zrotation Xrotation Yrotation
                JOINT lMid2
                {
                  OFFSET 3.10165 -0.590103 1.0647
                  CHANNELS 3 Zrotation Xrotation Yrotation
                  End Site
                  {
                    OFFSET 2.48547 -0.328903 0.83742
                  }
                }
              }
              JOINT lRing1
              {
                OFFSET 8.82822 0.546677 1.51678
                CHANNELS 3 Zrotation Xrotation Yrotation
                JOINT lRing2
                {
                  OFFSET 2.60934 -0.819778 -0.0198488
                  CHANNELS 3 Zrotation Xrotation Yrotation
                  End Site
                  {
                    OFFSET 2.33842 -0.294052 0.168128
                  }
                }
              }
              JOINT lPinky1
              {
                OFFSET 8.27202 -0.0477905 -0.4584
                CHANNELS 3 Zrotation Xrotation Yrotation
                JOINT lPinky2
                {
                  OFFSET 1.82734 -0.647385 -0.700984
                  CHANNELS 3 Zrotation Xrotation Yrotation
                  End Site
                  {
                    OFFSET 1.69225 -0.51767 -0.607171
                  }
                }
              }
            }
          }
        }
      }
    }
  }
  JOINT rButtock
  {
    OFFSET -8.77824 4.35084 1.2192
    CHANNELS 3 Zrotation Xrotation Yrotation
    JOINT rThigh
    {
      OFFSET 0 -1.70687 -2.19456
      CHANNELS 3 Zrotation Xrotation Yrotation
      JOINT rShin
      {
        OFFSET 0 -36.8199 0.73152
        CHANNELS 3 Zrotation Xrotation Yrotation
        JOINT rFoot
        {
          OFFSET 0.73152 -45.1104 -5.12064
          CHANNELS 3 Zrotation Xrotation Yrotation
          End Site
          {
            OFFSET -1.1221 -3.69964 12.103
          }
        }
      }
    }
  }
  JOINT lButtock
  {
    OFFSET 8.77824 4.35084 1.2192
    CHANNELS 3 Zrotation Xrotation Yrotation
    JOINT lThigh
    {
      OFFSET 0 -1.70687 -2.19456
      CHANNELS 3 Zrotation Xrotation Yrotation
      JOINT lShin
      {
        OFFSET 0 -36.8199 0.73152
        CHANNELS 3 Zrotation Xrotation Yrotation
        JOINT lFoot
        {
          OFFSET -0.73152 -45.1104 -5.12064
          CHANNELS 3 Zrotation Xrotation Yrotation
          End Site
          {
            OFFSET 1.1221 -3.69964 12.103
          }
        }
      }
    }
  }
}
MOTION
Frames:	9
Frame Time:	0.00833333
52.3994 85.0159 -101.238 -0.0307805 0.000155244 0.000536404 0.0404827 0.000270407 0.00114435 0.0111572 0.000489944 0.0019327 3.72558e-016 7.95139e-016 -3.88251e-018 1.10574e-015 3.18055e-015 -1.3977e-017 -0 0 0 -0 0 0 2.96867e-016 9.70628e-019 1.49089e-016 5.94015e-015 -2.11209e-016 9.93923e-016 6.84316e-014 -2.0276e-014 6.36111e-015 7.64954e-013 1.64991e-014 -2.54444e-014 1.80577e-012 -6.13753e-015 -1.27222e-014 3.11535e-012 -1.59028e-014 -3.33958e-014 1.81292e-012 -3.18055e-015 -3.18055e-014 7.73091 5.47488 0.417314 1.80526e-012 -6.55989e-015 -1.59028e-014 2.90554 0.965183 0.102902 1.8101e-012 -6.26172e-015 -1.82882e-014 10.2786 0.731801 0.0259123 1.80298e-012 -3.57812e-015 -1.27222e-014 2.22167 -0.733487 -0.20892 1.00716e-016 9.70628e-019 -1.49089e-016 2.02036e-015 1.80149e-016 -9.93923e-016 6.71395e-014 1.98785e-014 -1.59028e-014 7.64197e-013 -2.14439e-014 1.27222e-014 1.80714e-012 -5.17052e-015 -2.22639e-014 3.12291e-012 -9.54166e-015 -2.70347e-014 1.80298e-012 -3.18055e-015 -9.54166e-015 -7.73091 5.47488 -0.417314 1.80705e-012 -4.67144e-015 -1.59028e-014 -2.90554 0.965183 -0.102902 1.80416e-012 -5.26779e-015 -1.82882e-014 -10.2786 0.731801 -0.0259123 1.81411e-012 -1.98785e-015 -2.54444e-014 -2.22167 -0.733487 0.20892 -2.03217e-016 0 -3.88251e-019 0.554633 -3.16496 -0.0436849 -0.00574515 0.179609 -0.0505571 -0.52387 2.98421 0.121167 2.03217e-016 0 3.88251e-019 -0.493043 -3.01454 0.0399656 0.00619336 -0.0928801 0.0545633 0.523466 3.10627 -0.123627 
51.8835 83.1224 -103.094 -0.40331 1.18733 -3.56513 1.03025 0.518222 -0.45314 0.517027 0.635333 -0.099205 -0.313396 1.74607 0.397629 -1.06923 0.0794718 0.801799 -0 0 0 -0 0 0 1.1584e-014 7.24895e-014 -1.01569e-013 20.9867 3.31492 -0.269591 -3.93562 -1.73519 6.2034 0.0715115 5.93807 0.818443 5.54774e-010 -6.75304e-011 -6.64762e-010 9.46144e-010 -1.09381e-010 -1.1582e-009 5.5478e-010 -6.75267e-011 -6.64776e-010 7.73091 5.47488 0.417314 5.54773e-010 -6.753e-011 -6.64765e-010 2.90554 0.965183 0.102902 5.54779e-010 -6.75295e-011 -6.64766e-010 10.2786 0.731801 0.0259123 5.54771e-010 -6.75269e-011 -6.64761e-010 2.22167 -0.733487 -0.20892 1.14156e-014 7.2488e-014 -1.01824e-013 -22.252 3.12713 1.20538 3.84604 -1.67796 -6.08217 -0.0696782 5.89119 -0.812486 -1.56249e-010 1.98989e-010 5.87199e-010 -2.61067e-010 3.49785e-010 1.01721e-009 -1.56252e-010 1.9899e-010 5.87209e-010 -7.73091 5.47488 -0.417314 -1.56248e-010 1.98989e-010 5.87204e-010 -2.90554 0.965183 -0.102902 -1.56253e-010 1.98988e-010 5.87201e-010 -10.2786 0.731801 -0.0259123 -1.56241e-010 1.98991e-010 5.87193e-010 -2.22167 -0.733487 0.20892 -2.03217e-016 0 -3.88251e-019 2.03228 -7.59177 0.520225 -0.0137123 6.86833 -0.0168469 -0.531903 -0.0517168 -0.266778 2.03217e-016 0 3.88251e-019 1.09027 -7.2777 1.16781 0.0277834 15.0429 -0.134158 0.528946 3.67145 0.171941 
51.6488 83.1123 -102.582 -0.636508 2.42846 -7.32909 2.08377 1.06349 -0.938063 1.06545 1.33117 -0.207765 -0.660907 3.58922 0.81612 -2.20922 0.13625 1.64139 -0 0 0 -0 0 0 2.33531e-014 1.51028e-013 -2.096e-013 43.2147 6.79111 -0.577819 -7.69436 -3.50457 12.7861 -0.041176 12.2043 1.71241 1.1391e-009 -1.18126e-010 -1.3881e-009 1.94229e-009 -1.88905e-010 -2.41813e-009 1.1391e-009 -1.18121e-010 -1.38811e-009 7.73091 5.47488 0.417314 1.13909e-009 -1.18124e-010 -1.3881e-009 2.90554 0.965183 0.102902 1.1391e-009 -1.18124e-010 -1.3881e-009 10.2786 0.731801 0.0259123 1.13909e-009 -1.18121e-010 -1.3881e-009 2.22167 -0.733487 -0.20892 2.32106e-014 1.51026e-013 -2.09808e-013 -45.9236 6.37895 2.45569 7.49765 -3.3683 -12.4845 0.0430571 12.1844 -1.71033 -3.4539e-010 4.10817e-010 1.23751e-009 -5.78009e-010 7.22529e-010 2.14395e-009 -3.45392e-010 4.10817e-010 1.23752e-009 -7.73091 5.47488 -0.417314 -3.45389e-010 4.10816e-010 1.23751e-009 -2.90554 0.965183 -0.102902 -3.45395e-010 4.10815e-010 1.23751e-009 -10.2786 0.731801 -0.0259123 -3.45382e-010 4.10818e-010 1.2375e-009 -2.22167 -0.733487 0.20892 -2.03217e-016 0 -3.88251e-019 3.68529 -12.2897 1.12657 -0.0311339 13.9302 0.0184027 -0.583763 -3.23696 -0.670852 2.03217e-016 0 3.88251e-019 2.94678 -11.7251 2.3772 0.174356 31.0235 -0.377726 0.52541 4.3337 0.438842 
51.3797 83.0902 -102.075 -0.70724 3.50654 -10.7145 3.03442 1.55373 -1.36215 1.53549 1.905 -0.301629 -1.01315 5.2372 1.19733 -3.21435 0.238229 2.40541 -0 0 0 -0 0 0 3.41583e-014 2.17466e-013 -3.05005e-013 63.055 9.94388 -0.819734 -10.6981 -4.96197 18.6742 -0.315993 17.7993 2.56501 1.66071e-009 -2.02579e-010 -1.99426e-009 2.8322e-009 -3.28111e-010 -3.47454e-009 1.66071e-009 -2.02574e-010 -1.99427e-009 7.73091 5.47488 0.417314 1.66071e-009 -2.02577e-010 -1.99426e-009 2.90554 0.965183 0.102902 1.66072e-009 -2.02576e-010 -1.99426e-009 10.2786 0.731801 0.0259123 1.66071e-009 -2.02573e-010 -1.99426e-009 2.22167 -0.733487 -0.20892 3.40454e-014 2.17462e-013 -3.05174e-013 -67.1551 9.36466 3.65958 10.4863 -4.80741 -18.3053 0.313126 17.659 -2.54456 -4.7236e-010 5.96977e-010 1.76164e-009 -7.89448e-010 1.04937e-009 3.05168e-009 -4.72362e-010 5.96976e-010 1.76165e-009 -7.73091 5.47488 -0.417314 -4.7236e-010 5.96975e-010 1.76164e-009 -2.90554 0.965183 -0.102902 -4.72366e-010 5.96974e-010 1.76164e-009 -10.2786 0.731801 -0.0259123 -4.72352e-010 5.96976e-010 1.76163e-009 -2.22167 -0.733487 0.20892 -2.03217e-016 0 -3.88251e-019 5.2589 -16.4394 1.70391 -0.0541605 20.2458 0.05429 -0.671684 -6.12256 -1.04832 2.03217e-016 0 3.88251e-019 4.77793 -15.78 3.52851 0.469966 45.3124 -0.707886 0.522353 4.80141 0.764337 
51.1884 83.0711 -101.475 -0.680987 4.22892 -13.1362 3.71024 1.90678 -1.63374 1.80429 2.17384 -0.358581 -1.3267 6.39818 1.48123 -3.88156 0.453222 2.98053 -0 0 0 -0 0 0 4.25535e-014 2.53652e-013 -3.68845e-013 76.848 12.2892 -0.883903 -12.5934 -5.87355 22.7643 -0.61647 21.7301 3.21102 2.02555e-009 -3.71676e-010 -2.30748e-009 3.45651e-009 -6.16525e-010 -4.02216e-009 2.02556e-009 -3.71671e-010 -2.30748e-009 7.73091 5.47488 0.417314 2.02555e-009 -3.71674e-010 -2.30748e-009 2.90554 0.965183 0.102902 2.02556e-009 -3.71673e-010 -2.30748e-009 10.2786 0.731801 0.0259123 2.02555e-009 -3.7167e-010 -2.30747e-009 2.22167 -0.733487 -0.20892 4.24795e-014 2.53647e-013 -3.68994e-013 -82.0344 11.6979 4.71254 12.5198 -5.81988 -22.6205 0.579229 21.1021 -3.10903 -4.43904e-010 7.18964e-010 1.97032e-009 -7.37128e-010 1.26148e-009 3.41189e-009 -4.43905e-010 7.18964e-010 1.97033e-009 -7.73091 5.47488 -0.417314 -4.43902e-010 7.18962e-010 1.97032e-009 -2.90554 0.965183 -0.102902 -4.4391e-010 7.18962e-010 1.97032e-009 -10.2786 0.731801 -0.0259123 -4.43896e-010 7.18964e-010 1.97031e-009 -2.22167 -0.733487 0.20892 -2.03217e-016 0 -3.88251e-019 6.44182 -19.2241 2.15916 -0.0751693 24.6955 0.0883031 -0.767638 -8.26002 -1.35282 2.03217e-016 0 3.88251e-019 6.19471 -18.8738 4.44941 0.855045 55.3735 -1.09446 0.533954 4.78285 1.23519 
51.0464 83.0465 -100.864 -0.65872 4.49057 -14.2149 4.00892 2.07794 -1.6973 1.77559 1.9809 -0.364398 -1.56999 6.87508 1.63972 -4.06444 0.865555 3.31979 -0 0 0 -0 0 0 4.92446e-014 2.46775e-013 -3.99116e-013 82.146 13.5347 -0.709444 -13.2597 -6.17886 24.2933 -0.766772 23.3566 3.49239 2.24249e-009 -7.72355e-010 -2.17366e-009 3.83319e-009 -1.30943e-009 -3.79503e-009 2.24249e-009 -7.72351e-010 -2.17366e-009 7.73091 5.47488 0.417314 2.24249e-009 -7.72353e-010 -2.17366e-009 2.90554 0.965183 0.102902 2.2425e-009 -7.72352e-010 -2.17366e-009 10.2786 0.731801 0.0259123 2.24249e-009 -7.72349e-010 -2.17365e-009 2.22167 -0.733487 -0.20892 4.92351e-014 2.46771e-013 -3.99273e-013 -87.9161 13.2506 5.60218 13.5468 -6.40011 -24.8613 0.641464 21.5702 -3.1932 -1.1967e-010 7.60259e-010 1.66304e-009 -1.81634e-010 1.32735e-009 2.87584e-009 -1.19672e-010 7.60259e-010 1.66304e-009 -7.73091 5.47488 -0.417314 -1.19666e-010 7.60257e-010 1.66303e-009 -2.90554 0.965183 -0.102902 -1.19677e-010 7.60257e-010 1.66303e-009 -10.2786 0.731801 -0.0259123 -1.19663e-010 7.60258e-010 1.66302e-009 -2.22167 -0.733487 0.20892 -2.03217e-016 0 -3.88251e-019 6.99959 -20.0979 2.43202 -0.0850514 26.528 0.116042 -0.83827 -9.35476 -1.55229 2.03217e-016 0 3.88251e-019 6.88702 -20.6462 5.02306 1.09492 59.5723 -1.33561 0.585405 4.06296 1.9264 
50.8395 83.0191 -100.364 -0.670807 4.43399 -14.3304 4.03569 2.11877 -1.61191 1.53522 1.45976 -0.333684 -1.7569 6.86372 1.70705 -3.90232 1.41695 3.48947 -0 0 0 -0 0 0 5.4639e-014 2.09173e-013 -4.04903e-013 81.3685 13.9928 -0.361302 -13.1179 -6.09547 23.9843 -0.760608 23.3399 3.48824 2.35037e-009 -1.33306e-009 -1.72228e-009 4.02709e-009 -2.28196e-009 -3.01747e-009 2.35037e-009 -1.33306e-009 -1.72228e-009 7.73091 5.47488 0.417314 2.35037e-009 -1.33306e-009 -1.72228e-009 2.90554 0.965183 0.102902 2.35038e-009 -1.33306e-009 -1.72228e-009 10.2786 0.731801 0.0259123 2.35037e-009 -1.33306e-009 -1.72228e-009 2.22167 -0.733487 -0.20892 5.47117e-014 2.0917e-013 -4.05089e-013 -87.3477 14.2413 6.36561 13.9278 -6.71684 -25.608 0.534556 19.9216 -2.92384 4.1211e-010 7.43479e-010 9.90743e-010 7.26893e-010 1.28807e-009 1.70581e-009 4.12109e-010 7.43482e-010 9.90745e-010 -7.73091 5.47488 -0.417314 4.12118e-010 7.43478e-010 9.90734e-010 -2.90554 0.965183 -0.102902 4.12104e-010 7.43479e-010 9.90737e-010 -10.2786 0.731801 -0.0259123 4.12116e-010 7.4348e-010 9.90727e-010 -2.22167 -0.733487 0.20892 -2.03217e-016 0 -3.88251e-019 7.08429 -19.6082 2.56285 -0.0839693 26.4914 0.137849 -0.880318 -9.7048 -1.67434 2.03217e-016 0 3.88251e-019 7.01447 -21.479 5.32745 1.09311 59.5825 -1.34549 0.693693 2.84359 2.77294 
50.5775 82.9938 -99.904 -0.690397 4.24905 -14.0324 3.929 2.09158 -1.45768 1.23284 0.863074 -0.287388 -1.90984 6.66175 1.71581 -3.61931 1.96143 3.54593 -0 0 0 -0 0 0 5.68431e-014 1.60414e-013 -3.83902e-013 78.1498 14.0874 0.0864972 -12.6548 -5.85847 22.9518 -0.688406 22.6418 3.36485 2.30011e-009 -1.77686e-009 -1.20295e-009 3.94913e-009 -3.05335e-009 -2.11968e-009 2.30012e-009 -1.77686e-009 -1.20296e-009 7.73091 5.47488 0.417314 2.30011e-009 -1.77686e-009 -1.20295e-009 2.90554 0.965183 0.102902 2.30012e-009 -1.77686e-009 -1.20295e-009 10.2786 0.731801 0.0259123 2.30011e-009 -1.77685e-009 -1.20295e-009 2.22167 -0.733487 -0.20892 5.69847e-014 1.60413e-013 -3.84123e-013 -84.1818 14.8081 6.96138 14.0116 -6.8974 -25.6505 0.401711 17.6512 -2.56331 9.01822e-010 6.88835e-010 2.91384e-010 1.56237e-009 1.1837e-009 4.89693e-010 9.0182e-010 6.8884e-010 2.91386e-010 -7.73091 5.47488 -0.417314 9.01832e-010 6.88834e-010 2.9137e-010 -2.90554 0.965183 -0.102902 9.01816e-010 6.88837e-010 2.91377e-010 -10.2786 0.731801 -0.0259123 9.01826e-010 6.88837e-010 2.91367e-010 -2.22167 -0.733487 0.20892 -2.03217e-016 0 -3.88251e-019 6.95314 -18.5791 2.60008 -0.0776328 25.7152 0.157544 -0.907937 -9.75085 -1.76012 2.03217e-016 0 3.88251e-019 6.87292 -21.9203 5.46779 0.980316 57.8305 -1.24957 0.853687 1.45874 3.65249 
50.3622 82.9345 -99.4219 -0.687077 4.12386 -13.8711 3.82751 2.0587 -1.31475 1.01691 0.443483 -0.246371 -2.05334 6.56674 1.69885 -3.44035 2.35296 3.54521 -0 0 0 -0 0 0 5.39633e-014 1.20067e-013 -3.33809e-013 76.1187 14.2424 0.560996 -12.3605 -5.70471 22.3098 -0.646711 22.2238 3.29183 2.04265e-009 -1.82679e-009 -8.65267e-010 3.51023e-009 -3.14288e-009 -1.53183e-009 2.04265e-009 -1.82679e-009 -8.65273e-010 7.73091 5.47488 0.417314 2.04264e-009 -1.82679e-009 -8.65267e-010 2.90554 0.965183 0.102902 2.04265e-009 -1.82679e-009 -8.65269e-010 10.2786 0.731801 0.0259123 2.04264e-009 -1.82679e-009 -8.65264e-010 2.22167 -0.733487 -0.20892 5.41294e-014 1.20067e-013 -3.34058e-013 -82.2826 15.0889 7.35172 14.1139 -7.04669 -25.7835 0.335538 16.2574 -2.34885 1.09985e-009 6.16535e-010 -9.70992e-011 1.89873e-009 1.05426e-009 -1.84587e-010 1.09985e-009 6.16541e-010 -9.7096e-011 -7.73091 5.47488 -0.417314 1.09986e-009 6.16535e-010 -9.71151e-011 -2.90554 0.965183 -0.102902 1.09984e-009 6.16538e-010 -9.71063e-011 -10.2786 0.731801 -0.0259123 1.09985e-009 6.16538e-010 -9.71151e-011 -2.22167 -0.733487 0.20892 -2.03217e-016 0 -3.88251e-019 6.87277 -17.8341 2.59452 -0.0737892 25.3289 0.17988 -0.940923 -9.93339 -1.85206 2.03217e-016 0 3.88251e-019 6.78212 -22.5152 5.56075 0.914916 56.7425 -1.19932 1.03104 0.241612 4.44345 
